<svg xmlns="http://www.w3.org/2000/svg" width="187" height="36" viewBox="0 0 187 36" fill="none"><path d="M42.664 30V4.44H48.136V16.572L45.724 14.844H60.268L57.82 16.572V4.44H63.292V30H57.82V17.724L60.268 19.452H45.724L48.136 17.724V30H42.664ZM72.2537 30.432C70.2617 30.432 68.6297 29.976 67.3577 29.064C66.1097 28.128 65.4857 26.832 65.4857 25.176C65.4857 23.472 66.0137 22.164 67.0697 21.252C68.1497 20.316 69.7337 19.632 71.8217 19.2L78.0497 17.976C78.0497 16.728 77.7617 15.792 77.1858 15.168C76.6338 14.52 75.8298 14.196 74.7738 14.196C73.7417 14.196 72.9377 14.436 72.3618 14.916C71.7857 15.372 71.4137 16.056 71.2457 16.968L65.8097 16.716C66.1697 14.604 67.1177 13.008 68.6537 11.928C70.2137 10.824 72.2537 10.272 74.7738 10.272C77.6538 10.272 79.8138 10.956 81.2538 12.324C82.7178 13.692 83.4497 15.696 83.4497 18.336V24.924C83.4497 25.476 83.5338 25.848 83.7018 26.04C83.8937 26.208 84.1697 26.292 84.5298 26.292H85.0698V30C84.9017 30.048 84.6257 30.096 84.2418 30.144C83.8818 30.192 83.5218 30.216 83.1617 30.216C82.3937 30.216 81.6738 30.084 81.0018 29.82C80.3538 29.556 79.8258 29.112 79.4178 28.488C79.0097 27.84 78.8057 26.928 78.8057 25.752L79.2738 26.112C79.0338 26.976 78.6018 27.732 77.9777 28.38C77.3778 29.028 76.5858 29.532 75.6018 29.892C74.6418 30.252 73.5258 30.432 72.2537 30.432ZM73.5497 26.724C74.4377 26.724 75.2177 26.556 75.8897 26.22C76.5617 25.86 77.0897 25.344 77.4737 24.672C77.8577 24 78.0497 23.208 78.0497 22.296V21.36L73.6577 22.296C72.7937 22.464 72.1337 22.752 71.6777 23.16C71.2457 23.544 71.0297 24.048 71.0297 24.672C71.0297 25.32 71.2457 25.824 71.6777 26.184C72.1097 26.544 72.7337 26.724 73.5497 26.724ZM86.4647 30V10.704H91.3247L91.5407 16.356L90.8567 16.176C91.0487 14.736 91.4327 13.584 92.0087 12.72C92.6087 11.856 93.3527 11.232 94.2407 10.848C95.1287 10.464 96.1007 10.272 97.1567 10.272C98.5487 10.272 99.7248 10.572 100.685 11.172C101.669 11.772 102.413 12.624 102.917 13.728C103.445 14.808 103.709 16.092 103.709 17.58V30H98.3087V19.38C98.3087 18.348 98.2247 17.472 98.0567 16.752C97.8887 16.032 97.5887 15.492 97.1567 15.132C96.7247 14.748 96.1247 14.556 95.3567 14.556C94.2287 14.556 93.3647 14.976 92.7647 15.816C92.1647 16.632 91.8647 17.82 91.8647 19.38V30H86.4647ZM113.452 30.432C111.82 30.432 110.404 30.024 109.204 29.208C108.028 28.368 107.116 27.204 106.468 25.716C105.844 24.204 105.532 22.416 105.532 20.352C105.532 18.288 105.856 16.512 106.504 15.024C107.152 13.512 108.064 12.348 109.24 11.532C110.44 10.692 111.844 10.272 113.452 10.272C114.82 10.272 115.996 10.56 116.98 11.136C117.988 11.688 118.744 12.456 119.248 13.44V4.44H124.648V30H119.5L119.392 27.156C118.864 28.188 118.072 28.992 117.016 29.568C115.984 30.144 114.796 30.432 113.452 30.432ZM115.216 26.292C116.08 26.292 116.812 26.064 117.412 25.608C118.012 25.152 118.468 24.492 118.78 23.628C119.092 22.74 119.248 21.648 119.248 20.352C119.248 19.032 119.092 17.94 118.78 17.076C118.468 16.188 118.012 15.528 117.412 15.096C116.812 14.64 116.08 14.412 115.216 14.412C113.944 14.412 112.936 14.952 112.192 16.032C111.448 17.088 111.076 18.528 111.076 20.352C111.076 22.152 111.448 23.592 112.192 24.672C112.96 25.752 113.968 26.292 115.216 26.292ZM129.184 35.4V31.368H131.74C132.364 31.368 132.82 31.272 133.108 31.08C133.42 30.912 133.66 30.6 133.828 30.144L134.224 29.028H132.748L125.98 10.704H131.488L135.916 23.988L140.056 10.704H145.564L138.148 31.836C137.716 33.108 137.092 34.02 136.276 34.572C135.46 35.124 134.32 35.4 132.856 35.4H129.184ZM154.983 30.432C153.015 30.432 151.299 30.024 149.835 29.208C148.371 28.368 147.231 27.192 146.415 25.68C145.599 24.168 145.191 22.392 145.191 20.352C145.191 18.312 145.599 16.548 146.415 15.06C147.231 13.548 148.371 12.372 149.835 11.532C151.299 10.692 153.015 10.272 154.983 10.272C156.951 10.272 158.667 10.692 160.131 11.532C161.595 12.372 162.735 13.548 163.551 15.06C164.367 16.548 164.775 18.312 164.775 20.352C164.775 22.392 164.367 24.168 163.551 25.68C162.735 27.192 161.595 28.368 160.131 29.208C158.667 30.024 156.951 30.432 154.983 30.432ZM154.983 26.292C156.327 26.292 157.371 25.776 158.115 24.744C158.859 23.688 159.231 22.224 159.231 20.352C159.231 18.48 158.859 17.028 158.115 15.996C157.371 14.94 156.327 14.412 154.983 14.412C153.639 14.412 152.595 14.94 151.851 15.996C151.107 17.028 150.735 18.48 150.735 20.352C150.735 22.224 151.107 23.688 151.851 24.744C152.595 25.776 153.639 26.292 154.983 26.292ZM166.697 30V10.704H171.557L171.773 16.356L171.089 16.176C171.281 14.736 171.665 13.584 172.241 12.72C172.841 11.856 173.585 11.232 174.473 10.848C175.361 10.464 176.333 10.272 177.389 10.272C178.781 10.272 179.957 10.572 180.917 11.172C181.901 11.772 182.645 12.624 183.149 13.728C183.677 14.808 183.941 16.092 183.941 17.58V30H178.541V19.38C178.541 18.348 178.457 17.472 178.289 16.752C178.121 16.032 177.821 15.492 177.389 15.132C176.957 14.748 176.357 14.556 175.589 14.556C174.461 14.556 173.597 14.976 172.997 15.816C172.397 16.632 172.097 17.82 172.097 19.38V30H166.697Z" fill="#1F1915"></path><mask id="mask0_20657_773" style="mask-type:alpha" maskUnits="userSpaceOnUse" x="0" y="0" width="34" height="35"><path d="M34 32.0002C34 33.1048 33.1046 34.0002 32 34.0002H21.9756C20.871 34.0002 19.9756 33.1048 19.9756 32.0002V29.9734C19.9756 29.7202 20.0194 29.4669 20.1369 29.2426C20.1959 29.1299 20.2701 29.0005 20.3604 28.8645C20.6071 28.493 21.0294 27.9923 21.6396 27.717C22.2822 27.4271 23.0209 27.4341 23.8374 27.7373C23.9555 27.7812 24.0666 27.8419 24.1716 27.9114L25.6582 28.8948C25.7061 28.9264 25.7623 28.9426 25.8193 28.9426H28.7041C28.8675 28.9426 29 28.807 29 28.6399V21.303C28.9999 21.1359 28.8675 21.0003 28.7041 21.0002H25.8193C25.7689 21.0002 25.7189 21.0131 25.6748 21.0383L24.1746 21.8947C24.0766 21.9506 23.9744 21.9992 23.8662 22.0314C23.6281 22.1022 23.1719 22.2118 22.623 22.2141H22.6045C21.5537 22.2141 20.6662 21.8367 19.9668 21.093C19.911 21.0337 19.8335 21.0002 19.7529 21.0002H13.0957C13.074 21.0003 13.0523 21.0022 13.0312 21.0071C12.9505 21.0255 11.0602 21.4656 8.75 22.718C7.39161 23.4545 6.17293 24.3207 5.12695 25.2913C3.81515 26.5086 2.77325 27.8949 2.03125 29.4124C1.97187 29.5339 1.99911 29.6816 2.09766 29.7727C2.19612 29.8635 2.34192 29.8763 2.4541 29.804C2.46766 29.7951 3.83583 28.9147 5.64258 28.1819C7.28645 27.5152 9.64121 26.8362 11.5244 27.3879C12.5128 27.6776 13.2895 28.2854 13.8389 29.1984C13.9949 29.4577 14.0576 29.76 14.0576 30.0626V32.0002C14.0576 33.1048 13.1622 34.0002 12.0576 34.0002H2C0.895431 34.0002 0 33.1048 0 32.0002V2.00024C0 0.895675 0.895431 0.000244141 2 0.000244141H10.8633C11.9679 0.000244141 12.8633 0.895675 12.8633 2.00024V2.39673C12.8633 3.14214 12.4376 3.81105 11.828 4.23995C9.44751 5.91458 7.9477 8.6595 7.90234 11.5823C7.86052 14.3787 9.07779 16.9562 11.1348 18.7014C11.3645 18.8955 11.672 18.9408 11.9463 18.8127C12.217 18.6881 12.3905 18.4245 12.3916 18.1262L12.3908 13.4576C12.3907 12.7437 12.7712 12.0838 13.3892 11.7262L16.0324 10.1969C16.6511 9.83895 17.4137 9.83836 18.0329 10.1954L20.6872 11.7257C21.3067 12.0829 21.6884 12.7436 21.6883 13.4587L21.6875 18.1252C21.6876 18.4245 21.8542 18.6871 22.125 18.8118C22.3994 18.94 22.7076 18.8955 22.9365 18.7004C24.9934 16.9553 26.1769 14.4127 26.1777 11.7268C26.1777 8.71824 24.6762 5.91658 22.2569 4.2274C21.6423 3.79832 21.2119 3.1267 21.2119 2.37717V2.00024C21.2119 0.895675 22.1073 0.000244141 23.2119 0.000244141H32C33.1046 0.000244141 34 0.895675 34 2.00024V32.0002Z" fill="#FF6712"></path></mask><g mask="url(#mask0_20657_773)"><rect x="7.62939e-05" width="17" height="34" rx="2" fill="#1F1915"></rect><rect x="17.0001" width="17" height="34" rx="2" fill="#F4BF11"></rect></g></svg>